Coordinates
version=1
nRows=27
nColumns=12
inDegrees=yes

Units are S.I. units (second, meters, Newtons, ...)
Angles are in degrees

endheader
time	SC_y	SC_z	SC_x	AC_y	AC_z	AC_x	GH_y	GH_z	GH_yy	EL_x	PS_y
       0.0              -31.24           17.1          4.204          57.97         -5.659         -11.51          76.14          15.97         -6.737          127.7          31.94
  0.008075              -31.24           17.1          4.215          57.97         -5.658         -11.52           76.1          15.97         -6.727          127.7          31.95
   0.01615              -31.24          17.09          4.226          57.96         -5.657         -11.52          76.07          15.98         -6.716          127.7          31.96
   0.02422              -31.24          17.09          4.239          57.96         -5.655         -11.52          76.03          15.98         -6.704          127.7          31.97
    0.0323              -31.24          17.09          4.252          57.96         -5.654         -11.52          75.98          15.98         -6.692          127.7          31.98
   0.04037              -31.24          17.09          4.266          57.96         -5.653         -11.52          75.94          15.98         -6.679          127.7           32.0
   0.04845              -31.24          17.08          4.281          57.96         -5.652         -11.52          75.89          15.98         -6.665          127.7          32.01
   0.05652              -31.24          17.08          4.298          57.95          -5.65         -11.52          75.83          15.98          -6.65          127.7          32.03
    0.0646              -31.24          17.07          4.315          57.95         -5.649         -11.52          75.78          15.98         -6.634          127.7          32.04
   0.07267              -31.24          17.07          4.333          57.95         -5.647         -11.53          75.72          15.98         -6.616          127.7          32.06
   0.08075              -31.24          17.07          4.353          57.94         -5.645         -11.53          75.65          15.98         -6.598          127.7          32.08
   0.08882              -31.24          17.06          4.375          57.94         -5.644         -11.53          75.58          15.98         -6.578          127.7           32.1
    0.0969              -31.24          17.06          4.398          57.93         -5.642         -11.53           75.5          15.98         -6.557          127.7          32.12
     0.105              -31.24          17.05          4.423          57.93         -5.639         -11.53          75.42          15.98         -6.533          127.6          32.15
     0.113              -31.24          17.04           4.45          57.93         -5.637         -11.54          75.33          15.98         -6.508          127.6          32.17
    0.1211              -31.24          17.04          4.479          57.92         -5.634         -11.54          75.24          15.98         -6.481          127.6           32.2
    0.1292              -31.24          17.03          4.511          57.91         -5.632         -11.54          75.13          15.98         -6.451          127.6          32.23
    0.1373              -31.24          17.02          4.546          57.91         -5.629         -11.55          75.02          15.99         -6.419          127.6          32.26
    0.1453              -31.25          17.01          4.584           57.9         -5.625         -11.55           74.9          15.99         -6.384          127.6           32.3
    0.1534              -31.25           17.0          4.625          57.89         -5.622         -11.55          74.76          15.99         -6.345          127.6          32.34
    0.1615              -31.25          16.99          4.671          57.89         -5.618         -11.56          74.61          15.99         -6.303          127.5          32.38
    0.1696              -31.25          16.98          4.721          57.88         -5.613         -11.56          74.45          15.99         -6.257          127.5          32.43
    0.1776              -31.25          16.97          4.777          57.87         -5.609         -11.57          74.26          15.99         -6.205          127.5          32.49
    0.1857              -31.25          16.95          4.838          57.86         -5.603         -11.57          74.06           16.0         -6.148          127.5          32.54
    0.1938              -31.25          16.94          4.906          57.84         -5.597         -11.58          73.84           16.0         -6.085          127.4          32.61
    0.2019              -31.26          16.92          4.982          57.83         -5.591         -11.59          73.59           16.0         -6.014          127.4          32.68
    0.2099              -31.26           16.9          5.068          57.82         -5.583         -11.59          73.31           16.0         -5.935          127.4          32.76
